<mxfile host="app.diagrams.net" modified="2022-11-25T10:50:30.536Z" agent="5.0 (Macintosh; Intel Mac OS X 10_15_7) AppleWebKit/537.36 (KHTML, like Gecko) Chrome/107.0.0.0 Safari/537.36" etag="XH4MhKkvziSQ9TGEK6FV" version="20.5.1" type="github">
  <diagram id="U7D3ccZj4Mjo8jZI7G2g" name="Page-1">
    <mxGraphModel dx="1413" dy="724" grid="1" gridSize="10" guides="1" tooltips="1" connect="1" arrows="1" fold="1" page="1" pageScale="1" pageWidth="827" pageHeight="1169" math="0" shadow="0">
      <root>
        <mxCell id="0" />
        <mxCell id="1" parent="0" />
        <mxCell id="t089BbJqni6KnfwQquC--13" value="LEGENDE" style="swimlane;labelBackgroundColor=#FFFFFF;" vertex="1" parent="1">
          <mxGeometry x="60" y="20" width="110" height="220" as="geometry" />
        </mxCell>
        <mxCell id="t089BbJqni6KnfwQquC--14" value="INT" style="rounded=0;whiteSpace=wrap;html=1;labelBackgroundColor=#99CCFF;" vertex="1" parent="t089BbJqni6KnfwQquC--13">
          <mxGeometry x="20" y="30" width="70" height="20" as="geometry" />
        </mxCell>
        <mxCell id="t089BbJqni6KnfwQquC--24" value="CHAR" style="rounded=0;whiteSpace=wrap;html=1;labelBackgroundColor=#FFB570;" vertex="1" parent="t089BbJqni6KnfwQquC--13">
          <mxGeometry x="20" y="60" width="70" height="20" as="geometry" />
        </mxCell>
        <mxCell id="t089BbJqni6KnfwQquC--27" value="&lt;span style=&quot;background-color: rgb(153, 153, 255);&quot;&gt;FLOAT&lt;/span&gt;" style="rounded=0;whiteSpace=wrap;html=1;labelBackgroundColor=#FFB570;" vertex="1" parent="t089BbJqni6KnfwQquC--13">
          <mxGeometry x="20" y="90" width="70" height="20" as="geometry" />
        </mxCell>
        <mxCell id="t089BbJqni6KnfwQquC--26" value="** NOT NULL" style="text;html=1;align=center;verticalAlign=middle;resizable=0;points=[];autosize=1;strokeColor=none;fillColor=none;" vertex="1" parent="t089BbJqni6KnfwQquC--13">
          <mxGeometry x="5" y="180" width="100" height="30" as="geometry" />
        </mxCell>
        <mxCell id="t089BbJqni6KnfwQquC--28" value="&lt;span style=&quot;background-color: rgb(0, 204, 102);&quot;&gt;DATE&lt;/span&gt;" style="rounded=0;whiteSpace=wrap;html=1;labelBackgroundColor=#FFB570;" vertex="1" parent="t089BbJqni6KnfwQquC--13">
          <mxGeometry x="20" y="120" width="70" height="20" as="geometry" />
        </mxCell>
        <mxCell id="t089BbJqni6KnfwQquC--30" value="&lt;span style=&quot;background-color: rgb(204, 204, 204);&quot;&gt;BOOL&lt;/span&gt;" style="rounded=0;whiteSpace=wrap;html=1;labelBackgroundColor=#FFB570;" vertex="1" parent="t089BbJqni6KnfwQquC--13">
          <mxGeometry x="20" y="150" width="70" height="20" as="geometry" />
        </mxCell>
        <mxCell id="t089BbJqni6KnfwQquC--19" value="Country" style="swimlane;labelBackgroundColor=#FFFFFF;" vertex="1" parent="1">
          <mxGeometry x="290" y="210" width="210" height="260" as="geometry" />
        </mxCell>
        <mxCell id="t089BbJqni6KnfwQquC--23" value="&lt;div&gt;&lt;span style=&quot;background-color: rgb(255, 181, 112);&quot;&gt;&lt;i style=&quot;&quot;&gt;&lt;u style=&quot;&quot;&gt;Code (3) **DEFAULT &#39;&#39; (PK)&lt;/u&gt;&lt;/i&gt;&lt;/span&gt;&lt;/div&gt;&lt;div&gt;&lt;span style=&quot;background-color: rgb(255, 181, 112);&quot;&gt;Name (52) ** DEFAULT &#39;&#39;&lt;/span&gt;&lt;/div&gt;&lt;div&gt;&lt;span style=&quot;background-color: rgb(255, 181, 112);&quot;&gt;Continent&amp;nbsp; ** DEFAULT &#39;Asia&#39;&lt;/span&gt;&lt;/div&gt;&lt;div&gt;&lt;span style=&quot;background-color: rgb(255, 181, 112);&quot;&gt;Region (26) ** DEFAULT &#39;&#39;&lt;/span&gt;&lt;/div&gt;&lt;div&gt;&lt;span style=&quot;background-color: rgb(153, 153, 255);&quot;&gt;SurfaceArea (10,2) ** DEFAULT &#39;0.00&#39;&lt;/span&gt;&lt;/div&gt;&lt;div&gt;&lt;span style=&quot;background-color: rgb(153, 204, 255);&quot;&gt;IndepYear DEFAULT NULL&lt;/span&gt;&lt;/div&gt;&lt;div&gt;&lt;span style=&quot;background-color: rgb(153, 204, 255);&quot;&gt;Population ** DEFAULT &#39;0&#39;&lt;/span&gt;&lt;/div&gt;&lt;div&gt;&lt;span style=&quot;background-color: rgb(153, 153, 255);&quot;&gt;LifeExpectancy (3,1) DEFAULT NULL&lt;/span&gt;&lt;/div&gt;&lt;div&gt;&lt;span style=&quot;background-color: rgb(153, 153, 255);&quot;&gt;GNP (10,2) DEFAULT NULL&lt;/span&gt;&lt;/div&gt;&lt;div&gt;&lt;span style=&quot;background-color: rgb(153, 153, 255);&quot;&gt;GNPOld (10,2) DEFAULT NULL&lt;/span&gt;&lt;/div&gt;&lt;div&gt;&lt;span style=&quot;background-color: rgb(255, 181, 112);&quot;&gt;LocalName (45) ** DEFAULT &#39;&#39;&lt;/span&gt;&lt;/div&gt;&lt;div&gt;&lt;span style=&quot;background-color: rgb(255, 181, 112);&quot;&gt;GovernmentForm (45) ** DEFAULT &#39;&#39;&lt;/span&gt;&lt;/div&gt;&lt;div&gt;&lt;span style=&quot;background-color: rgb(255, 181, 112);&quot;&gt;HeadOfState (60) DEFAULT NULL&lt;/span&gt;&lt;/div&gt;&lt;div&gt;&lt;span style=&quot;background-color: rgb(153, 204, 255);&quot;&gt;Capital DEFAULT NULL&lt;/span&gt;&lt;/div&gt;&lt;div&gt;&lt;span style=&quot;background-color: rgb(255, 181, 112);&quot;&gt;Code2 (2) ** DEFAULT &#39;&#39;&lt;/span&gt;&lt;/div&gt;" style="text;html=1;align=left;verticalAlign=middle;resizable=0;points=[];autosize=1;strokeColor=none;fillColor=none;" vertex="1" parent="t089BbJqni6KnfwQquC--19">
          <mxGeometry y="30" width="230" height="230" as="geometry" />
        </mxCell>
        <mxCell id="t089BbJqni6KnfwQquC--21" value="Countrylanguage" style="swimlane;labelBackgroundColor=#FFFFFF;" vertex="1" parent="1">
          <mxGeometry x="570" y="280" width="200" height="100" as="geometry" />
        </mxCell>
        <mxCell id="t089BbJqni6KnfwQquC--29" value="&lt;div&gt;&lt;span style=&quot;background-color: rgb(255, 181, 112);&quot;&gt;&lt;i&gt;CountryCode (3) ** DEFAULT &#39;&#39; (FK)&lt;/i&gt;&lt;/span&gt;&lt;/div&gt;&lt;div&gt;&lt;span style=&quot;background-color: rgb(255, 181, 112);&quot;&gt;Language (30) ** DEFAULT &#39;&#39;&lt;/span&gt;&lt;/div&gt;&lt;div&gt;&lt;span style=&quot;background-color: rgb(204, 204, 204);&quot;&gt;IsOfficial ** DEFAULT &#39;F&#39;&lt;/span&gt;&lt;/div&gt;&lt;div&gt;&lt;span style=&quot;background-color: rgb(153, 153, 255);&quot;&gt;Percentage (4,1) ** DEFAULT &#39;0.0&#39;&lt;/span&gt;&lt;/div&gt;" style="text;html=1;align=left;verticalAlign=middle;resizable=0;points=[];autosize=1;strokeColor=none;fillColor=none;" vertex="1" parent="t089BbJqni6KnfwQquC--21">
          <mxGeometry y="30" width="220" height="70" as="geometry" />
        </mxCell>
        <mxCell id="t089BbJqni6KnfwQquC--20" value="City" style="swimlane;labelBackgroundColor=#FFFFFF;" vertex="1" parent="1">
          <mxGeometry x="60" y="300" width="200" height="110" as="geometry" />
        </mxCell>
        <mxCell id="t089BbJqni6KnfwQquC--31" value="&lt;div&gt;&lt;span style=&quot;background-color: rgb(153, 204, 255);&quot;&gt;ID ** AUTO_INCREMENT&lt;/span&gt;&lt;/div&gt;&lt;div&gt;&lt;span style=&quot;background-color: rgb(255, 181, 112);&quot;&gt;Name (35) ** DEFAULT &#39;&#39;&lt;/span&gt;&lt;/div&gt;&lt;div&gt;&lt;span style=&quot;background-color: rgb(255, 181, 112);&quot;&gt;&lt;i&gt;CountryCode (3) DEFAULT &#39;&#39; (FK)&lt;/i&gt;&lt;/span&gt;&lt;/div&gt;&lt;div&gt;&lt;span style=&quot;background-color: rgb(255, 181, 112);&quot;&gt;District (20) ** DEFAULT &#39;&#39;&lt;/span&gt;&lt;/div&gt;&lt;div&gt;&lt;span style=&quot;background-color: rgb(153, 204, 255);&quot;&gt;Population ** DEFAULT &#39;0&#39;&lt;/span&gt;&lt;/div&gt;" style="text;html=1;align=left;verticalAlign=middle;resizable=0;points=[];autosize=1;strokeColor=none;fillColor=none;" vertex="1" parent="t089BbJqni6KnfwQquC--20">
          <mxGeometry y="20" width="200" height="90" as="geometry" />
        </mxCell>
        <mxCell id="t089BbJqni6KnfwQquC--32" value="" style="endArrow=classic;html=1;rounded=0;" edge="1" parent="1">
          <mxGeometry width="50" height="50" relative="1" as="geometry">
            <mxPoint x="290" y="250" as="sourcePoint" />
            <mxPoint x="250" y="365" as="targetPoint" />
          </mxGeometry>
        </mxCell>
        <mxCell id="t089BbJqni6KnfwQquC--33" value="" style="endArrow=classic;html=1;rounded=0;entryX=0.005;entryY=0.184;entryDx=0;entryDy=0;entryPerimeter=0;" edge="1" parent="1" target="t089BbJqni6KnfwQquC--29">
          <mxGeometry width="50" height="50" relative="1" as="geometry">
            <mxPoint x="500" y="250" as="sourcePoint" />
            <mxPoint x="520" y="230" as="targetPoint" />
          </mxGeometry>
        </mxCell>
      </root>
    </mxGraphModel>
  </diagram>
</mxfile>
